<?xml version="1.0"?>
<svg xmlns="http://www.w3.org/2000/svg" viewBox="0 0 64 64" width="512" height="512"><g id="feed"><path d="M60.82,56.83A2,2,0,0,1,58.83,59H5.17a2,2,0,0,1-1.99-2.17l1.67-20A1.994,1.994,0,0,1,6.84,35H57.16a1.994,1.994,0,0,1,1.99,1.83Z" style="fill:#57565c"/><path d="M56.47,52.83A2,2,0,0,1,54.48,55H9.52a2,2,0,0,1-1.99-2.17l1-12A1.887,1.887,0,0,1,9,39.71H55a1.887,1.887,0,0,1,.47,1.12Z" style="fill:#c6c5ca"/><rect x="9" y="8" width="46" height="38" rx="2" ry="2" style="fill:#2488ff"/><rect x="14" y="30" width="12" height="12" rx="2" ry="2" style="fill:#ffde55"/><rect x="14" y="13" width="12" height="12" rx="2" ry="2" style="fill:#ffde55"/><path d="M16,26h8a3,3,0,0,0,3-3V15a3,3,0,0,0-3-3H16a3,3,0,0,0-3,3v8A3,3,0,0,0,16,26ZM15,15a1,1,0,0,1,1-1h8a1,1,0,0,1,1,1v8a1,1,0,0,1-1,1H16a1,1,0,0,1-1-1Z"/><path d="M16,43h8a3,3,0,0,0,3-3V32a3,3,0,0,0-3-3H16a3,3,0,0,0-3,3v8A3,3,0,0,0,16,43ZM15,32a1,1,0,0,1,1-1h8a1,1,0,0,1,1,1v8a1,1,0,0,1-1,1H16a1,1,0,0,1-1-1Z"/><rect x="29" y="15" width="4" height="2"/><rect x="29" y="18" width="2" height="2"/><polygon points="32 18 32 20 41 20 43 20 43 18 41 18 32 18"/><rect x="29" y="24" width="5" height="2"/><polygon points="35 24 35 26 41 26 46 26 46 24 41 24 35 24"/><rect x="29" y="32" width="4" height="2"/><rect x="29" y="35" width="2" height="2"/><polygon points="32 35 32 37 41 37 43 37 43 35 41 35 32 35"/><rect x="30" y="51" width="4" height="2"/><path d="M60.147,36.752A3,3,0,0,0,57.16,34H56V10a3,3,0,0,0-3-3H11a3,3,0,0,0-3,3V34H6.84a3,3,0,0,0-2.986,2.747l-1.67,20A3,3,0,0,0,5.17,60H58.83a3,3,0,0,0,2.986-3.253ZM9.079,46.285A2.97,2.97,0,0,0,11,47H53a2.976,2.976,0,0,0,1.921-.715l.553,6.631A1,1,0,0,1,54.48,54H9.52a.985.985,0,0,1-.735-.322,1,1,0,0,1-.259-.765ZM10,10a1,1,0,0,1,1-1H53a1,1,0,0,1,1,1V44a1,1,0,0,1-1,1H11a1,1,0,0,1-1-1ZM59.564,57.678A.984.984,0,0,1,58.83,58H5.17a1,1,0,0,1-.994-1.087l1.671-20A.994.994,0,0,1,6.84,36H8v3.385a2.826,2.826,0,0,0-.466,1.362l-1,12A3,3,0,0,0,9.52,56H54.48a3,3,0,0,0,2.986-3.253l-1-11.985A2.869,2.869,0,0,0,56,39.385V36h1.16a1,1,0,0,1,.994.913l1.67,20A.991.991,0,0,1,59.564,57.678Z"/><rect x="29" y="41" width="5" height="2"/><polygon points="35 41 35 43 41 43 46 43 46 41 41 41 35 41"/><polygon points="51 14 51 12 41 12 29 12 29 14 41 14 51 14"/><polygon points="45 15 41 15 34 15 34 17 41 17 45 17 45 15"/><rect x="46" y="15" width="5" height="2"/><rect x="44" y="18" width="7" height="2"/><polygon points="51 23 51 21 41 21 29 21 29 23 41 23 51 23"/><rect x="47" y="24" width="4" height="2"/><polygon points="51 31 51 29 41 29 29 29 29 31 41 31 51 31"/><polygon points="45 32 41 32 34 32 34 34 41 34 45 34 45 32"/><rect x="46" y="32" width="5" height="2"/><rect x="44" y="35" width="7" height="2"/><polygon points="51 40 51 38 41 38 29 38 29 40 41 40 51 40"/><rect x="47" y="41" width="4" height="2"/></g></svg>
