<svg id="Capa_1" enable-background="new 0 0 512 512" height="512" viewBox="0 0 512 512" width="512" xmlns="http://www.w3.org/2000/svg"><g><g><g><g><g><g><path d="m10 359.408v59.213c0 13.018 10.524 23.572 23.507 23.572h444.986c12.983 0 23.507-10.554 23.507-23.572v-59.213" fill="#d1aee5"/><g><path d="m139.383 90.231h-105.876c-12.983 0-23.507 10.554-23.507 23.572v245.604h492v-245.604c0-13.018-10.524-23.572-23.507-23.572h-103.961" fill="#ccf5fc"/></g></g><path d="m208.511 442.192h94.979v49.203h-94.979z" fill="#ccf5fc"/></g></g></g><path d="m383.046 147.65c0-70.165-56.88-127.046-127.046-127.046s-127.046 56.881-127.046 127.046c0 59.566 40.993 109.556 96.306 123.301l30.74 35.286 30.739-35.286c55.314-13.745 96.307-63.735 96.307-123.301z" fill="#faf7f5"/><g fill="#ff9eb1"><path d="m256 234.238c-11.921 0-21.585-9.664-21.585-21.585v-32.575c0-11.921 9.664-21.585 21.585-21.585 11.921 0 21.585 9.664 21.585 21.585v32.575c0 11.921-9.664 21.585-21.585 21.585z"/><path d="m256 115.773c-11.921 0-21.585-9.664-21.585-21.585 0-11.921 9.664-21.585 21.585-21.585 11.921 0 21.585 9.664 21.585 21.585 0 11.921-9.664 21.585-21.585 21.585z"/></g></g><g><path d="m478.493 80.231h-103.206c-23.57-41.54-68.21-69.627-119.287-69.627s-95.717 28.087-119.287 69.627h-103.206c-18.476 0-33.507 15.061-33.507 33.573v304.816c0 18.512 15.031 33.572 33.507 33.572h165.004v29.203h-86.128c-5.523 0-10 4.477-10 10 0 5.522 4.477 10 10 10h287.234c5.523 0 10-4.478 10-10 0-5.523-4.477-10-10-10h-86.128v-29.203h165.004c18.476 0 33.507-15.061 33.507-33.572v-304.816c0-18.512-15.031-33.573-33.507-33.573zm-222.493-49.627c64.54 0 117.046 52.507 117.046 117.046 0 53.903-36.482 100.615-88.718 113.596-1.991.495-3.781 1.59-5.128 3.137l-23.2 26.631-23.199-26.631c-1.347-1.547-3.138-2.642-5.128-3.137-52.236-12.98-88.718-59.692-88.718-113.596-.001-64.539 52.505-117.046 117.045-117.046zm37.489 450.792h-74.979v-29.203h74.979zm185.004-49.204h-444.986c-7.448 0-13.507-6.089-13.507-13.572v-49.213h309.326c5.523 0 10-4.478 10-10s-4.477-10-10-10h-309.326v-235.603c0-7.483 6.059-13.572 13.507-13.572h93.905c-5.469 14.783-8.458 30.758-8.458 47.419 0 62.04 41.283 115.945 100.794 132.197l28.712 32.958c1.899 2.181 4.649 3.432 7.54 3.432s5.641-1.251 7.54-3.432l28.711-32.958c59.512-16.252 100.794-70.157 100.794-132.197 0-16.661-2.989-32.636-8.458-47.419h93.905c7.448 0 13.507 6.089 13.507 13.572v235.603h-72.262c-5.523 0-10 4.478-10 10s4.477 10 10 10h72.263v49.213c0 7.483-6.059 13.572-13.507 13.572z"/><path d="m273.368 390.8h-34.735c-5.523 0-10 4.478-10 10s4.477 10 10 10h34.735c5.523 0 10-4.478 10-10s-4.477-10-10-10z"/><path d="m256 244.238c17.416 0 31.585-14.169 31.585-31.585v-32.575c0-17.416-14.169-31.585-31.585-31.585-17.417 0-31.585 14.169-31.585 31.585v32.575c0 17.416 14.168 31.585 31.585 31.585zm-11.585-64.16c0-6.388 5.197-11.585 11.585-11.585s11.585 5.197 11.585 11.585v32.575c0 6.388-5.197 11.585-11.585 11.585s-11.585-5.197-11.585-11.585z"/><path d="m256 125.773c17.416 0 31.585-14.169 31.585-31.585s-14.169-31.584-31.585-31.584c-17.417 0-31.585 14.169-31.585 31.585s14.168 31.584 31.585 31.584zm0-43.169c6.388 0 11.585 5.197 11.585 11.585s-5.197 11.585-11.585 11.585-11.585-5.197-11.585-11.585 5.197-11.585 11.585-11.585z"/><path d="m383.95 355.58c-1.635-3.928-5.697-6.455-9.949-6.148-4.077.295-7.634 3.134-8.842 7.034-1.219 3.935.189 8.374 3.469 10.874 3.382 2.578 8.099 2.717 11.642.379 3.943-2.601 5.461-7.796 3.68-12.139z"/></g></g></svg>