<?xml version="1.0" encoding="utf-8"?>
<!-- Generator: Adobe Illustrator 24.1.2, SVG Export Plug-In . SVG Version: 6.00 Build 0)  -->
<svg version="1.1" id="Ebene_1" xmlns="http://www.w3.org/2000/svg" xmlns:xlink="http://www.w3.org/1999/xlink" x="0px" y="0px"
	 viewBox="0 0 1150 400" style="enable-background:new 0 0 1150 400;" xml:space="preserve">
<style type="text/css">
	.st0{display:none;fill:#00374D;}
	.st1{fill:#FFFFFF;}
	.st2{fill:#2B2B2A;}
	.st3{fill:none;stroke:#2B2B2A;stroke-width:2;stroke-miterlimit:1.788;}
	.st4{fill:#DE0000;}
	.st5{fill:#FFCF00;}
	.st6{fill-rule:evenodd;clip-rule:evenodd;fill:#2B2B2A;}
</style>
<rect x="-1.2" y="0.2" class="st0" width="1151.2" height="399.8"/>
<path class="st1" d="M84.8,32.9h970.9c6.6,0,12,5.4,12,12v310.2c0,6.6-5.4,12-12,12H84.8c-6.6,0-12-5.4-12-12V44.9
	C72.8,38.3,78.2,32.9,84.8,32.9z"/>
<g>
	<path class="st2" d="M393.5,257.8c9,0,15.4-5,15.4-13.4c0-7.3-4.1-11.4-11.5-14.3l-6.6-2.5c-5-2-7.4-4-7.4-8.5
		c0-4.6,4.3-7.6,9.7-7.6c4.6,0,7.6,2,10.2,5.1l4.1-3.4c-2.7-3.8-7.8-6.8-14.1-6.8c-8.6,0-15.2,5-15.2,12.7c0,6.8,3.3,10.6,11,13.6
		l7.3,2.8c4.6,1.8,7.2,4.7,7.2,9c0,5.1-4.5,8.2-10,8.2c-6,0-10-2.7-12.8-7.1l-4.4,3.2C378.6,253.8,385.2,257.8,393.5,257.8z
		 M343.9,257.8c11.3,0,19.2-7.7,19.2-20.1v-30.4h-5.3v30.6c0,9.6-5.5,14.9-13.9,14.9c-8.3,0-13.9-5.3-13.9-14.9v-30.6h-5.3v30.4
		C324.7,250.1,332.6,257.8,343.9,257.8z M278.8,228.9v-16.7h10.3c6.3,0,9.9,2.9,9.9,8.4s-3.6,8.3-9.9,8.3L278.8,228.9L278.8,228.9z
		 M273.5,256.9h5.3v-23.1h5.7l19.7,23.1h6.9l-19.6-23c8-0.6,12.9-5.7,12.9-13.3c0-8.1-5.6-13.4-14.7-13.4h-16.2V256.9z M243.9,256.9
		h5.3v-49.7h-5.3V256.9z M200.1,256.9h4.3l21.3-49.7h-5.9l-17.6,41l-17.6-41h-5.9L200.1,256.9z"/>
	<path class="st3" d="M394,200.5c9,0,15.4-5,15.4-13.4c0-7.3-4.1-11.4-11.6-14.3l-6.6-2.5c-5-2-7.4-4-7.4-8.5c0-4.6,4.3-7.6,9.7-7.6
		c4.5,0,7.6,2,10.1,5.1l4.1-3.4c-2.7-3.8-7.8-6.8-14.1-6.8c-8.6,0-15.2,5-15.2,12.7c0,6.8,3.3,10.6,11,13.6l7.4,2.8
		c4.5,1.8,7.2,4.7,7.2,9c0,5.1-4.5,8.2-10,8.2c-6,0-10-2.7-12.8-7.1l-4.4,3.2C379.1,196.5,385.8,200.5,394,200.5z M342.2,199.7h4.3
		l21.3-49.7H362l-17.6,41l-17.6-41h-6L342.2,199.7z"/>
	<path class="st2" d="M283.8,169.7v-9.5h7.1c3.3,0,5.7,1.8,5.7,4.8c0,2.9-2.4,4.8-5.7,4.8H283.8L283.8,169.7z M272.7,199.7h11.1
		v-20.5h1.8l16.5,20.5h13.4L298,177.8c6.3-2.2,9.7-6.4,9.7-12.8c0-8.3-6-15-15.4-15h-19.6L272.7,199.7L272.7,199.7z M244.8,199.7
		h11.1V150h-11.1V199.7z M177.4,199.7h10l9.9-32.8l9.9,32.8h10.1l15.5-49.7h-11.9l-9,31.7l-9.7-31.7h-9.8l-9.7,31.6l-9-31.6h-11.8
		L177.4,199.7z"/>
	<path d="M523.6,71.6c2.8,0.1,5.5,1.3,7.4,3.3c63.1,63.1,63.1,165.8,0,229s-165.9,63.1-229,0c-4.3-4.2-4.4-11-0.2-15.3
		c4.2-4.3,11-4.4,15.3-0.2c0.1,0.1,0.2,0.1,0.2,0.2c54.9,54.9,143.5,54.9,198.4,0c54.9-54.9,54.9-143.5,0-198.4
		c-4.3-4.2-4.4-11-0.2-15.3C517.6,72.7,520.6,71.5,523.6,71.6z"/>
	<path class="st4" d="M416.5,49c50.1,0,96.5,26.8,121.5,70.2c25.1,43.4,25.1,96.9,0,140.3c-25,43.4-71.4,70.2-121.5,70.2
		c-6,0.1-10.9-4.7-11-10.6s4.7-10.9,10.6-11c0.1,0,0.2,0,0.3,0c42.4,0,81.6-22.6,102.7-59.3v0l0,0c21.2-36.7,21.2-82,0-118.7l0,0v0
		c-21.1-36.7-60.4-59.4-102.7-59.4c-6,0.1-10.9-4.7-11-10.6s4.7-10.9,10.6-11C416.3,49,416.4,49,416.5,49z"/>
	<path class="st5" d="M416.5,70.7c30.4,0,60.8,11.6,84,34.7c46.2,46.2,46.2,121.6,0,167.9c-4.2,4.3-11,4.3-15.3,0.2
		c-4.3-4.2-4.3-11-0.2-15.3c0.1-0.1,0.1-0.1,0.2-0.2c38-38,38-99.4,0-137.3c-38-38.1-99.3-38.1-137.4,0c-4.2,4.3-11,4.4-15.3,0.2
		s-4.4-11-0.2-15.3c0.1-0.1,0.1-0.2,0.2-0.2C355.7,82.3,386.1,70.7,416.5,70.7z"/>
	<path class="st6" d="M628,83c1.7,0,3,1.3,3,3v231c0,1.7-1.3,3-3,3s-3-1.3-3-3V86C625,84.3,626.3,83,628,83z"/>
	<path class="st2" d="M120.3,196.7h13.1l-4,12.5h-13.1L120.3,196.7z M139,179l-4.2,13.4h-13.1l4.2-13.4h-4.6l-4.2,13.4H107v4.3h8.7
		l-3.9,12.5H102v4.3h8.5l-4.4,14h4.6l4.3-14h13.2l-4.4,14h4.6l4.3-14h10.2v-4.3h-8.9l4-12.5h9.8v-4.3h-8.5l4.2-13.4H139z"/>
	<g>
		<g>
			<path d="M706.1,168.1c0,2.8-0.5,5.2-1.5,7.3c-1,2.1-2.4,3.8-4.2,5.2c-1.8,1.4-3.8,2.5-6.2,3.2c-2.4,0.7-4.9,1.1-7.6,1.1
				c-1.8,0-3.5-0.1-5.1-0.4c-1.6-0.3-2.9-0.7-4.1-1.1c-1.2-0.4-2.2-0.9-3-1.3c-0.8-0.5-1.4-0.9-1.7-1.2c-0.4-0.4-0.6-0.9-0.8-1.5
				c-0.2-0.7-0.2-1.6-0.2-2.9c0-0.8,0-1.5,0.1-2.1c0.1-0.6,0.1-1,0.3-1.4c0.1-0.4,0.3-0.6,0.5-0.8c0.2-0.1,0.4-0.2,0.7-0.2
				c0.4,0,0.9,0.2,1.6,0.7c0.7,0.4,1.6,0.9,2.7,1.5c1.1,0.5,2.4,1,3.9,1.5c1.5,0.4,3.3,0.7,5.2,0.7c1.3,0,2.5-0.2,3.5-0.5
				c1-0.3,1.9-0.8,2.6-1.3c0.7-0.6,1.3-1.3,1.6-2.1c0.4-0.8,0.6-1.8,0.6-2.8c0-1.2-0.3-2.2-1-3.1c-0.7-0.9-1.5-1.6-2.5-2.3
				c-1-0.7-2.2-1.3-3.6-1.9c-1.3-0.6-2.7-1.2-4.1-1.9c-1.4-0.7-2.8-1.4-4.1-2.2c-1.3-0.8-2.5-1.8-3.6-3c-1-1.2-1.9-2.5-2.5-4.1
				c-0.7-1.6-1-3.5-1-5.7c0-2.5,0.5-4.7,1.4-6.7c0.9-1.9,2.2-3.5,3.8-4.8c1.6-1.3,3.5-2.2,5.6-2.8c2.2-0.6,4.4-0.9,6.9-0.9
				c1.2,0,2.5,0.1,3.7,0.3c1.2,0.2,2.4,0.4,3.5,0.8s2,0.7,2.9,1.1c0.8,0.4,1.4,0.7,1.7,1c0.3,0.3,0.5,0.5,0.5,0.7
				c0.1,0.2,0.2,0.4,0.2,0.8c0.1,0.3,0.1,0.7,0.1,1.2c0,0.5,0,1.1,0,1.8c0,0.8,0,1.5-0.1,2c0,0.5-0.1,1-0.2,1.3
				c-0.1,0.4-0.2,0.6-0.4,0.8c-0.2,0.2-0.4,0.2-0.7,0.2c-0.3,0-0.8-0.2-1.4-0.6c-0.7-0.4-1.5-0.8-2.4-1.2c-1-0.4-2.1-0.9-3.3-1.2
				c-1.2-0.4-2.6-0.5-4.1-0.5c-1.2,0-2.2,0.1-3.1,0.4s-1.6,0.7-2.2,1.2s-1,1.1-1.3,1.8c-0.3,0.7-0.4,1.5-0.4,2.2c0,1.2,0.3,2.2,1,3
				c0.6,0.9,1.5,1.6,2.6,2.3c1.1,0.7,2.3,1.3,3.6,1.9c1.4,0.6,2.7,1.2,4.2,1.9c1.4,0.7,2.8,1.4,4.2,2.2c1.4,0.8,2.6,1.8,3.6,3
				c1.1,1.2,1.9,2.5,2.6,4.1C705.8,164.2,706.1,166,706.1,168.1z"/>
			<path d="M764,157c0,4.4-0.5,8.3-1.6,11.7c-1.1,3.4-2.7,6.4-4.8,8.8c-2.1,2.4-4.8,4.2-8,5.5c-3.2,1.3-6.8,1.9-11,1.9
				c-4.1,0-7.7-0.5-10.7-1.6c-3.1-1.1-5.6-2.7-7.6-4.9c-2-2.2-3.6-5-4.6-8.4c-1-3.4-1.5-7.4-1.5-12.1c0-4.3,0.5-8.1,1.6-11.5
				s2.7-6.3,4.8-8.7c2.1-2.4,4.8-4.2,8-5.5c3.2-1.3,6.8-1.9,11-1.9c4,0,7.5,0.5,10.6,1.6c3.1,1.1,5.6,2.7,7.7,4.9
				c2,2.2,3.6,5,4.6,8.3S764,152.4,764,157z M752.8,157.5c0-2.8-0.2-5.3-0.7-7.6c-0.4-2.3-1.2-4.2-2.2-5.8c-1-1.6-2.4-2.9-4.2-3.7
				c-1.7-0.9-3.9-1.3-6.5-1.3c-2.6,0-4.8,0.5-6.6,1.5c-1.8,1-3.2,2.3-4.3,4c-1.1,1.7-1.9,3.6-2.3,5.8c-0.4,2.2-0.7,4.6-0.7,7
				c0,2.9,0.2,5.5,0.7,7.8c0.4,2.3,1.2,4.3,2.2,5.9c1,1.6,2.4,2.9,4.2,3.7c1.7,0.9,3.9,1.3,6.6,1.3c2.6,0,4.8-0.5,6.6-1.5
				s3.2-2.3,4.3-4c1.1-1.7,1.9-3.6,2.3-5.9S752.8,160.1,752.8,157.5z"/>
			<path d="M804.3,179.5c0,0.8,0,1.5-0.1,2.1c-0.1,0.6-0.2,1-0.3,1.4c-0.1,0.4-0.3,0.6-0.5,0.8c-0.2,0.2-0.4,0.2-0.7,0.2h-24.1
				c-0.9,0-1.6-0.3-2.3-0.8c-0.6-0.5-0.9-1.4-0.9-2.6v-47.9c0-0.3,0.1-0.5,0.3-0.7c0.2-0.2,0.5-0.4,0.9-0.5c0.4-0.1,1-0.2,1.6-0.3
				c0.7-0.1,1.6-0.1,2.6-0.1c1.1,0,1.9,0,2.6,0.1c0.7,0.1,1.2,0.2,1.6,0.3c0.4,0.1,0.7,0.3,0.9,0.5c0.2,0.2,0.3,0.5,0.3,0.7v42.4
				h16.6c0.3,0,0.5,0.1,0.7,0.2c0.2,0.1,0.4,0.4,0.5,0.7c0.1,0.3,0.2,0.8,0.3,1.3C804.3,178,804.3,178.6,804.3,179.5z"/>
			<path d="M853.9,164.3c0,3.2-0.5,6.1-1.4,8.7c-1,2.6-2.3,4.7-4.2,6.5c-1.8,1.8-4.1,3.1-6.8,4c-2.7,0.9-5.8,1.4-9.4,1.4
				c-3.3,0-6.3-0.4-8.9-1.2c-2.6-0.8-4.9-2.1-6.7-3.8c-1.8-1.7-3.2-3.8-4.2-6.3c-1-2.5-1.4-5.5-1.4-8.8v-32.1c0-0.3,0.1-0.5,0.2-0.7
				c0.2-0.2,0.5-0.4,0.9-0.5c0.4-0.1,1-0.2,1.6-0.3c0.7-0.1,1.5-0.1,2.6-0.1c1,0,1.9,0,2.6,0.1c0.7,0.1,1.2,0.2,1.6,0.3
				c0.4,0.1,0.7,0.3,0.9,0.5c0.2,0.2,0.3,0.5,0.3,0.7v31.1c0,2.1,0.3,3.9,0.8,5.4c0.5,1.5,1.3,2.8,2.2,3.8c1,1,2.1,1.8,3.5,2.3
				c1.3,0.5,2.8,0.8,4.5,0.8c1.7,0,3.2-0.3,4.5-0.8c1.3-0.5,2.5-1.3,3.4-2.3c0.9-1,1.6-2.2,2.1-3.7c0.5-1.5,0.8-3.1,0.8-4.9v-31.7
				c0-0.3,0.1-0.5,0.2-0.7c0.2-0.2,0.4-0.4,0.9-0.5c0.4-0.1,1-0.2,1.6-0.3c0.7-0.1,1.6-0.1,2.6-0.1c1,0,1.9,0,2.5,0.1
				c0.7,0.1,1.2,0.2,1.6,0.3c0.4,0.1,0.7,0.3,0.9,0.5c0.2,0.2,0.2,0.5,0.2,0.7V164.3z"/>
			<path d="M902.8,135.6c0,0.8,0,1.5-0.1,2c-0.1,0.6-0.2,1-0.3,1.3c-0.1,0.3-0.3,0.6-0.5,0.8c-0.2,0.2-0.4,0.2-0.7,0.2H888v42.5
				c0,0.3-0.1,0.5-0.3,0.7s-0.5,0.4-0.9,0.5c-0.4,0.1-1,0.2-1.6,0.3s-1.6,0.1-2.6,0.1c-1,0-1.9,0-2.6-0.1s-1.2-0.2-1.6-0.3
				c-0.4-0.1-0.7-0.3-0.9-0.5s-0.3-0.5-0.3-0.7V140H864c-0.3,0-0.5-0.1-0.7-0.2c-0.2-0.2-0.4-0.4-0.5-0.8c-0.1-0.3-0.2-0.8-0.3-1.3
				c-0.1-0.6-0.1-1.2-0.1-2c0-0.8,0-1.5,0.1-2.1c0.1-0.6,0.2-1,0.3-1.4c0.1-0.3,0.3-0.6,0.5-0.7c0.2-0.1,0.4-0.2,0.7-0.2h37.1
				c0.2,0,0.5,0.1,0.7,0.2c0.2,0.1,0.4,0.4,0.5,0.7c0.1,0.3,0.2,0.8,0.3,1.4C902.7,134.1,902.8,134.8,902.8,135.6z"/>
			<path d="M922.1,182.5c0,0.3-0.1,0.5-0.3,0.7s-0.5,0.4-0.9,0.5c-0.4,0.1-1,0.2-1.6,0.3c-0.7,0.1-1.5,0.1-2.6,0.1
				c-1,0-1.9,0-2.6-0.1c-0.7-0.1-1.2-0.2-1.6-0.3c-0.4-0.1-0.7-0.3-0.9-0.5s-0.3-0.5-0.3-0.7v-49.8c0-0.3,0.1-0.5,0.3-0.7
				c0.2-0.2,0.5-0.4,0.9-0.5c0.4-0.1,1-0.2,1.6-0.3c0.7-0.1,1.5-0.1,2.6-0.1c1.1,0,1.9,0,2.6,0.1c0.7,0.1,1.2,0.2,1.6,0.3
				c0.4,0.1,0.7,0.3,0.9,0.5c0.2,0.2,0.3,0.5,0.3,0.7V182.5z"/>
			<path d="M983.3,157c0,4.4-0.5,8.3-1.6,11.7c-1.1,3.4-2.7,6.4-4.8,8.8c-2.1,2.4-4.8,4.2-8,5.5c-3.2,1.3-6.8,1.9-11,1.9
				c-4.1,0-7.7-0.5-10.7-1.6c-3.1-1.1-5.6-2.7-7.6-4.9c-2-2.2-3.6-5-4.6-8.4c-1-3.4-1.5-7.4-1.5-12.1c0-4.3,0.5-8.1,1.6-11.5
				s2.7-6.3,4.8-8.7c2.1-2.4,4.8-4.2,8-5.5c3.2-1.3,6.8-1.9,11-1.9c4,0,7.5,0.5,10.6,1.6c3.1,1.1,5.6,2.7,7.7,4.9
				c2,2.2,3.6,5,4.6,8.3S983.3,152.4,983.3,157z M972.1,157.5c0-2.8-0.2-5.3-0.7-7.6c-0.4-2.3-1.2-4.2-2.2-5.8
				c-1-1.6-2.4-2.9-4.2-3.7c-1.7-0.9-3.9-1.3-6.5-1.3c-2.6,0-4.8,0.5-6.6,1.5c-1.8,1-3.2,2.3-4.3,4c-1.1,1.7-1.9,3.6-2.3,5.8
				c-0.4,2.2-0.7,4.6-0.7,7c0,2.9,0.2,5.5,0.7,7.8c0.4,2.3,1.2,4.3,2.2,5.9c1,1.6,2.4,2.9,4.2,3.7c1.7,0.9,3.9,1.3,6.6,1.3
				c2.6,0,4.8-0.5,6.6-1.5s3.2-2.3,4.3-4c1.1-1.7,1.9-3.6,2.3-5.9S972.1,160.1,972.1,157.5z"/>
			<path d="M1038.1,180.2c0,0.6-0.1,1.2-0.3,1.7c-0.2,0.5-0.5,0.9-0.9,1.2c-0.4,0.3-0.8,0.6-1.3,0.7c-0.5,0.1-1,0.2-1.5,0.2h-4.6
				c-1,0-1.8-0.1-2.5-0.3c-0.7-0.2-1.3-0.5-1.9-1c-0.6-0.5-1.1-1.2-1.7-2s-1.2-2-1.8-3.3l-13.1-24.6c-0.8-1.5-1.5-3-2.3-4.7
				c-0.8-1.7-1.5-3.3-2.1-4.9h-0.1c0.1,2,0.2,3.9,0.2,5.8c0.1,1.9,0.1,3.9,0.1,6v27.6c0,0.3-0.1,0.5-0.2,0.7
				c-0.1,0.2-0.4,0.4-0.8,0.5c-0.4,0.1-0.9,0.3-1.5,0.3c-0.6,0.1-1.4,0.1-2.4,0.1c-1,0-1.7,0-2.4-0.1s-1.1-0.2-1.5-0.3
				c-0.4-0.1-0.6-0.3-0.7-0.5c-0.1-0.2-0.2-0.5-0.2-0.7v-47.4c0-1.3,0.4-2.2,1.1-2.9c0.7-0.6,1.7-1,2.7-1h5.7c1,0,1.9,0.1,2.6,0.3
				c0.7,0.2,1.3,0.5,1.9,0.9c0.6,0.4,1.1,1,1.6,1.7c0.5,0.7,1,1.6,1.5,2.7l10.3,19.3c0.6,1.2,1.2,2.3,1.8,3.4
				c0.6,1.1,1.1,2.3,1.7,3.4c0.5,1.1,1.1,2.2,1.6,3.3s1,2.2,1.5,3.3h0c-0.1-1.9-0.1-3.9-0.2-5.9c0-2.1-0.1-4-0.1-5.9v-24.7
				c0-0.3,0.1-0.5,0.2-0.7c0.2-0.2,0.4-0.4,0.8-0.6c0.4-0.2,0.9-0.3,1.5-0.3c0.6-0.1,1.4-0.1,2.4-0.1c0.9,0,1.7,0,2.3,0.1
				c0.6,0.1,1.1,0.2,1.4,0.3c0.3,0.2,0.6,0.4,0.7,0.6c0.1,0.2,0.2,0.5,0.2,0.7V180.2z"/>
		</g>
		<g>
			<path d="M713,247.7c0,1.9-0.3,3.6-0.8,5.1s-1.2,2.9-2.1,4c-0.9,1.2-2,2.2-3.3,3c-1.3,0.8-2.7,1.5-4.2,2.1s-3.1,0.9-4.9,1.2
				c-1.7,0.3-3.6,0.4-5.8,0.4h-14c-0.9,0-1.6-0.3-2.3-0.8c-0.6-0.5-0.9-1.4-0.9-2.6v-45.9c0-1.2,0.3-2.1,0.9-2.6
				c0.6-0.5,1.4-0.8,2.3-0.8h13.2c3.2,0,6,0.3,8.2,0.8c2.2,0.5,4.1,1.4,5.7,2.5s2.7,2.5,3.5,4.2s1.2,3.7,1.2,5.9
				c0,1.3-0.2,2.5-0.5,3.6s-0.8,2.2-1.4,3.1c-0.6,0.9-1.4,1.7-2.3,2.4c-0.9,0.7-1.9,1.3-3.1,1.7c1.5,0.3,2.9,0.7,4.1,1.4
				c1.3,0.7,2.4,1.6,3.3,2.6c0.9,1.1,1.7,2.3,2.2,3.8C712.7,244.3,713,245.9,713,247.7z M699.2,225.5c0-1.1-0.2-2-0.5-2.9
				c-0.3-0.8-0.8-1.5-1.5-2.1s-1.5-1-2.5-1.3s-2.3-0.4-4-0.4h-5.4v13.7h6c1.5,0,2.8-0.2,3.7-0.5c0.9-0.4,1.7-0.9,2.3-1.5
				c0.6-0.6,1.1-1.4,1.4-2.2C699,227.4,699.2,226.5,699.2,225.5z M701.9,248.1c0-1.2-0.2-2.3-0.6-3.3c-0.4-1-1-1.8-1.8-2.4
				c-0.8-0.7-1.8-1.2-3-1.5c-1.2-0.4-2.8-0.5-4.8-0.5h-6.4v15h7.7c1.5,0,2.7-0.2,3.8-0.5c1-0.3,1.9-0.8,2.6-1.4
				c0.7-0.6,1.3-1.4,1.8-2.3C701.7,250.3,701.9,249.2,701.9,248.1z"/>
			<path d="M766.9,243.9c0,3.2-0.5,6.1-1.4,8.7c-1,2.6-2.3,4.7-4.2,6.5c-1.8,1.8-4.1,3.1-6.8,4c-2.7,0.9-5.8,1.4-9.4,1.4
				c-3.3,0-6.3-0.4-8.9-1.2c-2.6-0.8-4.9-2.1-6.7-3.8c-1.8-1.7-3.2-3.8-4.2-6.3c-1-2.5-1.4-5.5-1.4-8.8v-32.1c0-0.3,0.1-0.5,0.2-0.7
				c0.2-0.2,0.5-0.4,0.9-0.5s1-0.2,1.6-0.3s1.5-0.1,2.6-0.1c1,0,1.9,0,2.6,0.1s1.2,0.2,1.6,0.3s0.7,0.3,0.9,0.5
				c0.2,0.2,0.3,0.5,0.3,0.7v31.1c0,2.1,0.3,3.9,0.8,5.4s1.3,2.8,2.2,3.8c1,1,2.1,1.8,3.5,2.3c1.3,0.5,2.8,0.8,4.5,0.8
				c1.7,0,3.2-0.3,4.5-0.8c1.3-0.5,2.5-1.3,3.4-2.3c0.9-1,1.6-2.2,2.1-3.7c0.5-1.5,0.8-3.1,0.8-4.9v-31.7c0-0.3,0.1-0.5,0.2-0.7
				c0.2-0.2,0.4-0.4,0.9-0.5s1-0.2,1.6-0.3c0.7-0.1,1.6-0.1,2.6-0.1c1,0,1.9,0,2.5,0.1c0.7,0.1,1.2,0.2,1.6,0.3s0.7,0.3,0.9,0.5
				c0.2,0.2,0.2,0.5,0.2,0.7V243.9z"/>
			<path d="M791.5,262c0,0.3-0.1,0.5-0.3,0.7c-0.2,0.2-0.5,0.4-0.9,0.5s-1,0.2-1.6,0.3c-0.7,0.1-1.5,0.1-2.6,0.1c-1,0-1.9,0-2.6-0.1
				c-0.7-0.1-1.2-0.2-1.6-0.3s-0.7-0.3-0.9-0.5c-0.2-0.2-0.3-0.5-0.3-0.7v-49.8c0-0.3,0.1-0.5,0.3-0.7c0.2-0.2,0.5-0.4,0.9-0.5
				s1-0.2,1.6-0.3s1.5-0.1,2.6-0.1c1.1,0,1.9,0,2.6,0.1c0.7,0.1,1.2,0.2,1.6,0.3s0.7,0.3,0.9,0.5c0.2,0.2,0.3,0.5,0.3,0.7V262z"/>
			<path d="M834.2,259c0,0.8,0,1.5-0.1,2.1c-0.1,0.6-0.2,1-0.3,1.4c-0.1,0.4-0.3,0.6-0.5,0.8c-0.2,0.2-0.4,0.2-0.7,0.2h-24.1
				c-0.9,0-1.6-0.3-2.3-0.8c-0.6-0.5-0.9-1.4-0.9-2.6v-47.9c0-0.3,0.1-0.5,0.3-0.7c0.2-0.2,0.5-0.4,0.9-0.5s1-0.2,1.6-0.3
				c0.7-0.1,1.6-0.1,2.6-0.1c1.1,0,1.9,0,2.6,0.1c0.7,0.1,1.2,0.2,1.6,0.3s0.7,0.3,0.9,0.5c0.2,0.2,0.3,0.5,0.3,0.7v42.4h16.6
				c0.3,0,0.5,0.1,0.7,0.2c0.2,0.1,0.4,0.4,0.5,0.7c0.1,0.3,0.2,0.8,0.3,1.3C834.2,257.5,834.2,258.2,834.2,259z"/>
			<path d="M886.7,236.4c0,4.8-0.6,9-1.9,12.4c-1.3,3.4-3.1,6.2-5.4,8.4c-2.4,2.2-5.2,3.8-8.6,4.8c-3.4,1-7.4,1.5-12.1,1.5h-12.6
				c-0.9,0-1.6-0.3-2.3-0.8c-0.6-0.5-0.9-1.4-0.9-2.6v-45.9c0-1.2,0.3-2.1,0.9-2.6c0.6-0.5,1.4-0.8,2.3-0.8h13.5
				c4.7,0,8.7,0.5,12,1.6s6,2.7,8.3,4.9c2.2,2.2,3.9,4.8,5.1,8C886.1,228.5,886.7,232.2,886.7,236.4z M875.6,236.7
				c0-2.5-0.3-4.8-0.9-7c-0.6-2.1-1.5-4-2.8-5.6c-1.3-1.6-2.9-2.8-5-3.7c-2-0.9-4.7-1.3-8-1.3h-5.4V255h5.6c2.9,0,5.4-0.4,7.4-1.1
				c2-0.8,3.7-1.9,5-3.4s2.3-3.4,3-5.7C875.3,242.4,875.6,239.8,875.6,236.7z"/>
			<path d="M929,259.3c0,0.8,0,1.4-0.1,2c-0.1,0.5-0.2,1-0.3,1.3s-0.3,0.6-0.5,0.7c-0.2,0.1-0.4,0.2-0.7,0.2H901
				c-0.9,0-1.6-0.3-2.3-0.8c-0.6-0.5-0.9-1.4-0.9-2.6v-45.9c0-1.2,0.3-2.1,0.9-2.6c0.6-0.5,1.4-0.8,2.3-0.8h26.3
				c0.2,0,0.5,0.1,0.7,0.2c0.2,0.1,0.4,0.4,0.5,0.7c0.1,0.3,0.2,0.8,0.3,1.3c0.1,0.5,0.1,1.2,0.1,2c0,0.8,0,1.4-0.1,1.9
				c-0.1,0.5-0.2,1-0.3,1.3c-0.1,0.3-0.3,0.6-0.5,0.7c-0.2,0.1-0.4,0.2-0.7,0.2h-18.8v12.9h15.9c0.2,0,0.5,0.1,0.7,0.2
				c0.2,0.1,0.4,0.4,0.5,0.7c0.1,0.3,0.2,0.7,0.3,1.3c0.1,0.5,0.1,1.2,0.1,1.9c0,0.8,0,1.4-0.1,2s-0.2,0.9-0.3,1.2
				c-0.1,0.3-0.3,0.5-0.5,0.7c-0.2,0.1-0.4,0.2-0.7,0.2h-15.9v14.9h19c0.2,0,0.5,0.1,0.7,0.2c0.2,0.1,0.4,0.4,0.5,0.7
				c0.1,0.3,0.2,0.8,0.3,1.3C929,257.9,929,258.5,929,259.3z"/>
			<path d="M979.9,262.1c0,0.3-0.1,0.5-0.2,0.8c-0.1,0.2-0.4,0.4-0.8,0.5s-1,0.2-1.8,0.3c-0.8,0.1-1.9,0.1-3.2,0.1
				c-1.1,0-2,0-2.7-0.1c-0.7-0.1-1.2-0.2-1.6-0.3c-0.4-0.1-0.7-0.3-0.8-0.6c-0.2-0.2-0.3-0.5-0.4-0.8l-4.7-11.8
				c-0.6-1.3-1.1-2.5-1.7-3.5c-0.5-1-1.1-1.9-1.8-2.6s-1.4-1.2-2.3-1.6c-0.9-0.4-1.9-0.5-3-0.5h-3.3V262c0,0.3-0.1,0.5-0.3,0.7
				c-0.2,0.2-0.5,0.4-0.9,0.5s-1,0.2-1.6,0.3c-0.7,0.1-1.5,0.1-2.6,0.1c-1,0-1.9,0-2.6-0.1c-0.7-0.1-1.2-0.2-1.6-0.3
				s-0.7-0.3-0.9-0.5c-0.2-0.2-0.2-0.5-0.2-0.7v-47.9c0-1.2,0.3-2.1,0.9-2.6c0.6-0.5,1.4-0.8,2.3-0.8h13.6c1.4,0,2.5,0,3.4,0.1
				c0.9,0.1,1.7,0.1,2.4,0.2c2.1,0.3,4,0.8,5.7,1.5c1.7,0.7,3.1,1.7,4.3,2.9c1.2,1.2,2.1,2.6,2.7,4.2c0.6,1.6,0.9,3.5,0.9,5.6
				c0,1.8-0.2,3.4-0.7,4.8c-0.4,1.5-1.1,2.7-2,3.9c-0.9,1.1-1.9,2.1-3.2,3c-1.3,0.8-2.7,1.5-4.4,2c0.8,0.4,1.5,0.8,2.2,1.4
				s1.3,1.2,2,2c0.6,0.8,1.2,1.7,1.7,2.6s1.1,2.1,1.6,3.4l4.4,10.4c0.4,1,0.7,1.8,0.8,2.3S979.9,261.8,979.9,262.1z M966.1,226.4
				c0-1.7-0.4-3.2-1.2-4.4c-0.8-1.2-2.1-2-3.9-2.5c-0.5-0.1-1.2-0.2-1.9-0.3c-0.7-0.1-1.6-0.1-2.9-0.1h-4.8v14.9h5.5
				c1.5,0,2.9-0.2,4-0.5c1.1-0.4,2.1-0.9,2.9-1.5c0.8-0.7,1.3-1.5,1.7-2.4C965.9,228.5,966.1,227.5,966.1,226.4z"/>
		</g>
	</g>
</g>
</svg>
