<?xml version="1.0" encoding="utf-8"?>
<!-- Generator: Adobe Illustrator 16.0.4, SVG Export Plug-In . SVG Version: 6.00 Build 0)  -->
<!DOCTYPE svg PUBLIC "-//W3C//DTD SVG 1.1//EN" "http://www.w3.org/Graphics/SVG/1.1/DTD/svg11.dtd">
<svg version="1.1" id="Layer_1" xmlns="http://www.w3.org/2000/svg" xmlns:xlink="http://www.w3.org/1999/xlink" x="0px" y="0px"
	 width="841.89px" height="595.28px" viewBox="0 0 841.89 595.28" enable-background="new 0 0 841.89 595.28" xml:space="preserve">
<path fill-rule="evenodd" clip-rule="evenodd" fill="#FFFFFF" d="M421.113,514.728c-76.916,0-153.833,0.182-230.748-0.055
	c-63.762-0.191-105.833-41.391-106.86-105.032c-0.652-40.325-0.85-80.683,0.06-120.998c1.498-66.296,44.402-114.554,109.956-107.363
	c88.026,9.659,156.188-20.353,216.907-78.677c7.378-7.086,15.696-13.799,24.743-18.395c13.562-6.895,28.043-7.164,37.552,6.921
	c9.013,13.354,7.304,27.29-5.809,37.417c-43.756,33.805-87.971,67.011-131.842,100.662c-8.389,6.433-17.779,4.854-26.971,4.893
	c-37.521,0.165-75.043-0.253-112.559,0.165c-36.433,0.401-55.598,18.554-56.491,55.114c-0.981,40.309-0.833,80.673,0,120.986
	c0.654,31.661,17.554,48.693,49.171,48.775c156.642,0.401,313.289,0.341,469.934,0.039c24.88-0.045,42.376-16.719,43.544-45.389
	c1.91-46.818,1.528-93.79,0.336-140.646c-0.578-22.678-14.063-36.362-37.871-36.691c-29.074-0.407-58.154-0.099-87.231-0.242
	c-19.088-0.093-34.412-6.619-34.173-28.329c0.244-22.161,15.789-26.851,35.063-26.389c27.187,0.66,54.399,0.088,81.599,0.181
	c58.899,0.209,95.929,33.849,98.199,92.218c1.748,44.955,1.776,90.09-0.011,135.043c-2.425,60.991-41.664,109.859-111.415,106.589
	C571.32,512.013,496.153,514.728,421.113,514.728z"/>
</svg>
